<?xml version="1.0" encoding="UTF-8"?><svg id="Layer_1" xmlns="http://www.w3.org/2000/svg" viewBox="0 0 500 500"><defs><style>.cls-1{fill:#0c303a;}</style></defs><path class="cls-1" d="m304.18,262.01c.64,1.49,1.77,1.98,3.11,1.98.78.07,1.56.07,2.41.07l.64.42c.07.28.07.57.14.85-.28.21-.5.42-.71.64h-.85c-2.05-.07-4.11-.14-6.16-.14-1.13-.07-2.26,0-3.4.07-1.06.14-2.12.14-3.12.14-.78,0-1.56,0-2.26-.07-.5-.07-.99-.14-1.49-.21l-.42-.64c.07-.5.35-.92.78-1.13,1.34,0,2.69-.21,4.03-.64.35-.57.71-1.2.92-1.84-.14-1.2.07-2.41.07-3.61s0-2.41.07-3.68v-4.74c0-.78.07-1.49.07-2.27.07-.42.07-.92,0-1.34-.14-1.77-.21-3.54-.21-5.31,0-.35-.07-.71-.07-1.13v-2.19c.07-.5.07-.99,0-1.49-.07-.5-.07-1.06.07-1.49v-8.35c-.07-.42-.14-.85-.21-1.27l-.64-.71c-.07,0-.21.07-.35.14-.28.21-.5.57-.57.92-.5,1.7-.99,3.4-1.56,5.03-.14.57-.35,1.06-.5,1.56s-.35.99-.42,1.49c-.42,1.49-.92,2.9-1.34,4.39-.14.42-.28.85-.42,1.2-.64,1.63-1.2,3.33-1.63,5.03-.28.78-.5,1.56-.64,2.41-.21.78-.35,1.63-.64,2.41-.35,1.2-.78,2.41-1.13,3.61-.28.99-.5,1.91-.78,2.9-.21.64-.35,1.27-.57,1.91-.35,1.13-.71,2.33-1.13,3.47-.99.35-1.91.92-3.04.21-.21-.35-.35-.64-.5-.92-.5-1.42-.99-2.76-1.42-4.18-.43-1.2-.85-2.48-1.27-3.68-.35-1.2-.71-2.41-1.13-3.61-.14-.5-.28-.99-.5-1.56-.71-1.91-1.27-3.82-2.05-5.73-.78-1.98-1.35-3.96-2.05-5.95-.5-1.34-.85-2.69-1.27-4.11-.35-1.06-.57-2.26-.85-3.4-.07-.42-.28-.85-.64-1.2l-.35.21c-.21.64-.35,1.27-.35,1.98.07,1.7.07,3.4,0,5.17v11.89c.07,2.62.07,5.24.07,7.86,0,1.2-.07,2.48-.07,3.75,0,1.13.07,2.26.28,3.4,0,.21.07.35.14.57.21,1.56,1.56,2.62,3.11,2.62.64.07,1.27.21,1.91.57q.21.07.5.64l-.21.5-1.06.57h-12.74l-.85-.28c-.07-.14-.07-.21-.14-.28-.07-.57.14-1.2.64-1.49.42-.28.85-.42,1.35-.42.64-.07,1.2-.28,1.77-.64.71-.28,1.2-.85,1.34-1.56.14-.92.28-1.84.42-2.76.35-2.12.28-4.32.28-6.51.07-1.49-.07-2.97.07-4.53.14-1.49.14-3.04.14-4.6.07-1.42.07-2.83.07-4.25.07-.43.07-.78.14-1.13.07-.14.07-.35.07-.5-.07-.99-.07-1.91,0-2.83,0-.64-.21-1.27-.07-1.91.07-.57.07-1.13,0-1.7.07-.92-.07-1.84-.14-2.76,0-1.2.07-2.41.07-3.54.07-1.2,0-2.34-.28-3.47-.28-1.13-.99-1.63-1.98-1.84-.5-.14-1.06-.21-1.42-.35-.57-.35-.78-.71-.64-1.27.21-.35.64-.5,1.06-.5.85.07,1.7-.07,2.55.21.21.07.35.07.57.07,1.27,0,2.48.07,3.68,0,.99,0,2.05.14,2.97.42.5.99.92,1.98,1.2,3.04.07.21.07.42.14.57.5,1.56,1.06,3.04,1.56,4.53.43,1.13.71,2.34,1.13,3.47.35,1.13.78,2.27,1.13,3.4.35,1.06.71,2.12.99,3.11.35,1.13.57,2.19.92,3.26.5,1.63.99,3.26,1.49,4.81.5,1.49.99,3.04,1.49,4.53.14.64.42,1.2.78,1.77.28.14.64.07.85-.21.14-.21.21-.42.28-.64.5-1.63.85-3.26,1.42-4.88.64-1.84,1.13-3.82,1.77-5.73.42-1.13.78-2.26,1.13-3.47.57-1.84,1.13-3.75,1.7-5.66.5-1.98,1.27-3.89,1.7-5.88.14-.85.42-1.7.85-2.48.21-.43.42-.92.57-1.42.28-.92.85-1.7,1.63-2.2.64-.28,1.35-.42,2.05-.35h11.18l.71.99c0,.42-.28.78-.71.92-.5.21-.99.28-1.56.35-.85,0-1.63.21-2.41.57-.28.35-.5.78-.57,1.27-.21,1.06-.35,2.05-.5,3.12-.21.92-.21,1.84-.07,2.76-.07,1.49.21,2.97-.14,4.46v.5c.28,1.84.28,3.61,0,5.45-.07.71-.07,1.49,0,2.19-.07,2.12,0,4.25-.07,6.3-.07,1.42-.21,2.83-.21,4.32.07,2.48-.07,4.95.07,7.36.07,1.42.21,2.83.21,4.32Z"/><path class="cls-1" d="m205.31,221.52c0,1.7-.07,3.75-.07,5.52v.71c-.21.92-.28,1.84-.21,2.76,0,1.56,0,3.11-.07,4.67,0,.5.07.99.07,1.49,0,.57.35,1.13.85,1.34h4.39c.64,0,1.27-.07,1.91-.14.85-.07,1.63-.14,2.48-.07h5.45c.57-.14.99-.5,1.35-.99,0-.92.21-1.84.07-2.83,0-.71,0-1.42.07-2.12,0-.99-.14-1.98-.14-2.97-.07-1.06-.07-2.12-.07-3.18-.07-1.2-.21-2.62-.21-3.82,0-.71-.42-1.34-1.06-1.63-.21-.14-.42-.28-.57-.35-1.13-.21-2.19-.42-3.26-.64-.5-.07-.92-.35-1.13-.78-.07-.35-.07-.71.14-.99.21-.35.57-.49.99-.57,1.13-.14,2.27-.21,3.4-.21h5.24c.92,0,1.77-.07,2.69-.14,1.7-.14,3.4-.14,5.1.07.42,0,.78.07,1.27.14l.71.71c-.14.43-.28.78-.35,1.06-.78.35-1.56.57-2.34.64-.57.07-1.2.21-1.7.42-.92.28-1.56,1.13-1.63,2.05-.07,2.05-.21,4.18-.21,6.16-.07,1.98,0,3.89-.07,5.8,0,.57-.07,1.2-.14,1.77-.07.42-.07.85,0,1.27.21,1.77-.07,3.54-.07,5.38v4.88c.07,1.06.14,2.19.21,3.26v3.12c.07,1.34.07,2.69.07,4.03v.28c.21,1.06.28,2.19.21,3.26.71,1.13,1.77,1.7,2.83,2.34l2.41.35c.64.28.99,1.06.71,1.7-.35.28-.78.5-1.27.5-.78-.07-1.56,0-2.34-.07-1.13-.21-2.19-.21-3.26,0-.28.07-.5.07-.78.07h-7.93c-.21,0-.42,0-.64.07-.78.28-1.63.14-2.48.14-.35-.28-.71-.64-.92-1.06.07-.64.64-1.2,1.27-1.27.42-.14.78-.14,1.13-.21,2.55-.07,4.18-2.41,4.25-4.39,0-.92.07-1.91.07-2.83,0-.85,0-1.63.14-2.41v-1.13c-.07-.71-.14-1.42-.07-2.12.07-.64-.07-1.2-.07-1.84.07-.57.07-1.2.07-1.77s0-1.13-.14-1.7c-.14-.92-.28-1.77-.42-2.62-.28-1.06-.78-1.56-1.84-1.56-1.42-.07-2.76,0-4.18,0-1.06,0-2.05.07-3.11,0-.14,0-.28,0-.35.07-1.49.14-2.97.21-4.39.21-.5,0-.99.14-1.42.35l-.57.71c-.35,1.56-.57,3.19-.42,4.74,0,1.7.07,3.4.07,5.03.14,2.9.21,5.73.28,8.64.64,1.34,1.98,1.98,3.11,2.55l2.41.35c.5.64.71,1.2.21,1.98-.28,0-.57.07-.85.07h-10.9c-.92.07-1.84.14-2.76.21-1.06,0-2.12.07-3.11.21-.21.07-.5.07-.71.07-.14-.14-.35-.28-.57-.5-.14-.14-.21-.35-.35-.5,0-.71.57-1.35,1.27-1.56.35-.07.78-.14,1.13-.21.5-.07,1.06-.21,1.49-.28.57-.28,1.06-.64,1.49-1.13.78-.99,1.2-2.19,1.27-3.47.07-1.42.07-2.9.21-4.39,0-.28-.07-.57-.07-.85-.07-1.63-.07-3.19-.14-4.81,0-.5-.07-.99-.07-1.49v-.5c.14-1.13.07-2.34-.07-3.47-.07-.64-.07-1.2-.07-1.77,0-1.42-.07-2.76-.07-4.18,0-.35.07-.71.07-1.13.07-1.7,0-3.47-.14-5.24v-.28c.28-1.35-.14-2.62-.07-3.96,0-1.13,0-2.55-.07-3.68,0-.5-.07-.99-.21-1.49-.21-.78-.78-1.35-1.56-1.49-1.06-.35-2.12-.57-3.26-.5l-.92-.57c-.07-.42-.07-.78-.14-1.13.07-.07.14-.21.28-.35.35-.35.92-.57,1.49-.5,1.13,0,2.27,0,3.4-.07,1.35,0,2.76-.07,4.11-.14,1.27,0,2.48-.07,3.68-.07h4.88c.64,0,1.2.35,1.56.85,0,.21.07.42.07.64-.07.14-.14.28-.21.35-.28.21-.57.42-.92.42-.92.21-1.91.42-3.11.71-.85.28-1.56,1.06-1.77,1.98Z"/><path class="cls-1" d="m280.99,187.64c-.11-.88-.42-1.71-.81-2.49-.29-.59-.58-1.17-.89-1.75.21.02.47-.03.54-.12.18-.24.02-.44-.1-.62-1.27-1.96-2.53-3.93-3.83-5.88-.32-.48-.71-.94-1.15-1.32-2.1-1.86-4.24-3.67-6.86-4.81-1.12-.49-2.22-1.04-3.32-1.57-5-2.41-10.26-2.99-15.72-2.34-.38.05-.75.12-1.13.2.05-.05.1-.11.14-.16.29-.36.59-.73.91-1.07,1.97-2.08,4-4.1,6.18-5.96,2.5-2.14,5.38-3.72,8.23-5.32,1.16-.65,2.38-1.27,3.78-1.29.17,0,.34-.08.5-.14.36-.15.61-.52.6-.88.09-.03.19-.06.28-.09.4-.14.44-.73.12-1.02-.23-.21-.49-.34-.79-.34-.64,0-1.3-.04-1.92.08-3.51.65-6.96,1.5-10.15,3.16-2.81,1.47-5.43,3.22-7.53,5.63-1.89,2.16-3.49,4.53-4.87,7.05-.18.32-.21.82-.87.88-1.34-1.68-2.97-3.17-4.64-4.63-1.97-1.72-4.15-3.03-6.75-3.52-1.14-.22-2.3-.41-3.46-.48-1.69-.09-3.39-.01-5.08-.08-1.25-.05-2.42.35-3.62.57-.61.12-1.05.49-1.38,1-.18.27-.28.59-.14.88-.05,0-.11,0-.16-.02-.27-.04-.56.16-.63.49-.06.31.03.59.26.79.5.45,1.1.62,1.77.65,1.11.05,2.22.12,3.32.22,1.34.12,2.66.4,3.91.91,2.87,1.17,5.54,2.74,8.28,4.18.35.18.87.39.89.78.03.59-.66.55-1.04.77-.65.38-1.35.69-2.03,1.04-3.32,1.7-6.09,4.09-8.63,6.78-1.89,2-3.5,4.23-5.02,6.51-1.71,2.57-3.34,5.18-4.42,8.13-.97,2.62-1.47,5.27-1.65,8.02-.02.29,0,.58.02.88,0,.11.04.23.08.34.09.23.26.39.5.43.25.04.48-.07.56-.32.36-1.06.82-2.07,1.32-3.06.12-.07.23-.17.32-.28.2-.28.35-.6.49-.92.35-.76.69-1.53,1.04-2.29,1.87-3.39,3.94-6.66,6.38-9.7,4.74-5.9,10.63-10.11,17.98-12.16.52-.14.75-.03.86.54.37,1.95.71,3.91,1.07,5.86.24,1.32.56,2.63.7,3.96.28,2.55.47,5.12.67,7.68.37,4.66.8,9.31.86,13.99.01.99-.06,1.99,0,2.98.17,3.09.43,6.18.56,9.27.12,2.8.28,15.6.64,18.38.16,1.22.34,2.43.4,3.66.15,2.86.38,5.71.36,8.58,0,1.63.1,3.27.17,4.9.16,3.62.42,7.23.33,10.86-.02.63.13,1.27.21,1.91.07.57.36.98.93,1.15.56.17,1.02-.01,1.42-.43.39-.41.76-.84,1.06-1.29.18.02.36-.08.47-.22.59-.7.8-1.55.85-2.44.18-2.86.25-5.72.16-8.58-.06-1.99-.17-3.97-.13-5.96.09-4.68-.22-19.35-.57-24.01-.13-1.69-.35-3.37-.46-5.06-.34-5.19-1.02-10.35-1.63-15.51-.48-4.12-1.04-8.23-1.55-12.34-.43-3.42-1.08-6.81-1.86-10.16-.46-1.99-.95-3.98-1.44-5.96,1.44,1.45,2.88,2.9,4.34,4.32,2.8,2.72,4.95,5.89,6.76,9.32.92,1.76,1.9,3.49,2.55,5.37.24.68.66.91,1.17.78.49-.13.77-.58.71-1.25-.04-.46-.09-.94-.21-1.38-.96-3.56-2.11-7.04-4.04-10.23-1.81-2.98-3.91-5.66-6.75-7.72-.66-.48-1.33-.95-2-1.42-.19-.13-.43-.25-.41-.51.03-.33.34-.26.55-.28,3.98-.36,7.94-.11,11.89.41,2.04.27,4.05.77,5.82,1.81,2.36,1.39,4.73,2.8,6.81,4.61,1.37,1.19,2.75,2.36,4.08,3.59.6.55,1.15,1.17,1.63,1.82.82,1.13,1.8,2.16,2.26,3.52.1.29.53.44.72.31.21-.15.27-.37.24-.61Z"/><path class="cls-1" d="m202.82,279.89c.15-.3.14-.62,0-.91-.11-.22-.34-.48-.81-.48h-5.21c.6-1.24,1.2-2.39,1.77-3.42.1-.19.13-.39.11-.59-.03-.21-.12-.39-.29-.53-.14-.11-.29-.2-.46-.25-.18-.05-.37-.05-.55.02-.18.07-.34.2-.47.41-.68,1.25-1.41,2.72-2.17,4.35h-7.27c-.37,0-.66.16-.82.47-.16.3-.16.62,0,.92.17.32.45.49.83.49h6.43c-.5,1.12-1.18,2.7-2.04,4.72-.07.19-.29.7-.65,1.54-.36.85-.6,1.4-.71,1.67-.11.27-.32.79-.63,1.55-.31.76-.53,1.33-.67,1.71-.14.37-.33.9-.57,1.58-.24.68-.43,1.27-.56,1.75-.13.47-.21.75-.3,1.3-.08.4-.13.7-.16.91-.03.21-.05.52-.06.93-.01.44.06.82.21,1.12.16.32.39.56.7.72.17.09.33.12.46.12.21,0,.38-.08.51-.16.28-.2.43-.47.43-.78,0-.09-.01-.21-.06-.32-.19-.49-.29-1.01-.17-1.52.31-1.33.88-3.54,1.19-4.39.45-1.26,1-2.67,1.63-4.2,1.37-3.42,2.53-6.19,3.46-8.22h6.09c.38,0,.66-.17.82-.49Z"/><path class="cls-1" d="m265.88,285.47c-.82.35-1.97.91-3.42,1.66-1.45.75-2.48,1.27-3.07,1.54-1.1.53-1.95.76-2.53.67-.51-.06-.88-.26-1.13-.61-.48-.68-.52-1.92-.12-3.72.05-.29.01-.71-.47-1.02-.4-.27-.81-.21-1.1.13l-.09.09c-.3-.32-.69-.5-1.15-.54-.54-.05-1.07.03-1.57.23-.49.19-.93.45-1.32.76-.26.2-.51.45-.76.73-2.58.09-4.88.47-6.85,1.14-.01-.7-.2-1.32-.57-1.87-.44-.66-1.1-1.03-1.96-1.11-.96-.08-1.96.26-2.99,1.01l1.09-2.9c.16-.45-.01-.75-.19-.91-.23-.22-.54-.31-.88-.25-.35.06-.6.28-.72.62-.59,1.56-1.12,2.96-1.59,4.21-.1.03-.19.07-.26.13-.04.02-.11.06-.23.14-.31.24-.57.43-.77.56l-.96.65c-.43.29-.8.52-1.09.68-.31.17-.69.38-1.16.63-.45.24-.85.42-1.19.54-.35.12-.74.24-1.16.37-.4.12-.76.17-1.07.16-.32-.02-.65-.07-.96-.16-.29-.08-.56-.23-.79-.44-.23-.22-.43-.5-.59-.88-.05-.1-.14-.34-.25-.95-.1-.57-.26-.98-.48-1.28-.25-.33-.65-.48-1.2-.43-.61.08-1.21.35-1.79.8,0-.6-.08-1.06-.28-1.4-.21-.36-.69-.68-1.79-.19-.47.21-.95.5-1.41.86.07-.26.13-.53.2-.82.13-.47-.07-.77-.26-.93-.25-.22-.55-.3-.88-.24-.35.06-.59.31-.66.67-.14.54-.28,1.06-.41,1.56-.08.02-.15.04-.22.08-.82.35-1.97.91-3.43,1.67-1.45.75-2.48,1.27-3.07,1.54-1.1.53-1.95.76-2.53.67-.51-.06-.88-.26-1.13-.61-.48-.68-.52-1.92-.12-3.72.05-.29.01-.71-.47-1.02-.4-.27-.81-.21-1.1.13l-.09.09c-.3-.32-.69-.5-1.15-.54-.54-.05-1.07.03-1.57.23-.49.19-.93.45-1.32.76-.62.48-1.17,1.17-1.64,2.04-.47.88-.7,1.71-.69,2.45.02.79.34,1.33.96,1.62.6.28,1.23.21,1.87-.21.87-.59,1.9-1.54,3.05-2.84.07.71.27,1.34.6,1.9.42.66.98,1.12,1.68,1.36.68.24,1.44.29,2.25.15.14-.02.27-.04.41-.07.14-.03.29-.08.44-.14.13-.05.25-.1.36-.13.12-.04.26-.09.42-.16.16-.07.28-.12.37-.16.09-.04.22-.1.42-.2l.36-.18c.06-.03.18-.09.38-.2l.14-.07c.11-.06.18-.09.21-.11,1.6-.82,2.93-1.49,3.97-1.99-.22.76-.44,1.47-.65,2.09-.08.19-.14.37-.18.53-.1.35-.02.67.24.9.24.22.54.3.87.24.35-.06.59-.29.69-.64.27-.93.86-1.96,1.76-3.06.65-.79,1.19-1.34,1.61-1.65-.03.38-.12.88-.27,1.47-.3,1.21-.36,1.53-.37,1.66-.05.46.2.79.68.92.47.12.86-.03,1.08-.43.26-.44.46-.79.61-1.03.14-.23.36-.5.65-.83.29-.31.58-.56.87-.73.06-.03.11-.06.15-.08,0,.08.01.15.03.2.04.3.1.56.18.78.25.7.63,1.31,1.13,1.81.51.51,1.12.84,1.8,1,.76.19,1.64.17,2.36.09.36-.04.78-.14,1.24-.31.45-.16.82-.29,1.13-.41.32-.12.72-.31,1.2-.59l1.06-.61c.25-.14.61-.38,1.07-.69h.02c-.17.43-.32.85-.46,1.23-.07.2-.14.38-.22.55-.46,1.15-1.08,2.87-1.84,5.11-.55,1.53-1.07,3.03-1.58,4.51h-.07s0,.25,0,.25c0,.02-.01.05-.03.08-.02.06-.04.11-.08.19-.13.45.05.73.22.9.19.18.41.27.67.27.07,0,.14,0,.21-.02.35-.06.6-.28.73-.63l.07-.21c.02-.07.04-.12.07-.17.35-.93.84-2.35,1.45-4.21.63-1.75,1.35-3.72,2.14-5.83.92-2.1,2.12-3.6,3.57-4.48.32-.19.64-.3.95-.34.29-.04.54,0,.75.09.19.09.33.26.43.5.1.26.11.59.03.99-.01.07-.03.13-.04.2-.38.19-.73.38-1.07.58-1.78,1.11-2.69,2.22-2.79,3.37-.04.46.04.82.26,1.06.22.24.51.36.86.33.3-.02.59-.09.89-.21.29-.12.55-.27.77-.45,1.17-.93,2.03-2.04,2.57-3.29,1.71-.73,3.78-1.19,6.15-1.37-.27.65-.4,1.26-.39,1.82.02.79.34,1.33.96,1.62.6.28,1.23.21,1.87-.21.87-.59,1.9-1.54,3.05-2.84.07.71.27,1.34.6,1.9.42.66.98,1.12,1.68,1.36.68.24,1.44.29,2.25.15.14-.02.27-.04.41-.07.14-.03.29-.08.45-.14.13-.05.25-.1.36-.13.12-.04.26-.09.42-.16.16-.07.28-.12.37-.16.09-.04.22-.1.42-.2l.36-.18c.06-.03.18-.09.38-.2l.14-.07c.11-.06.18-.09.21-.11,2.4-1.24,4.19-2.12,5.32-2.62.05-.03.09-.05.13-.08.42-.28.49-.71.2-1.18-.31-.48-.75-.61-1.24-.37Zm-64.93.9h0c-.09.12-.31.36-.65.74-.34.38-.63.69-.87.92-.23.23-.47.44-.71.61-.1.06-.17.11-.23.15.01-.06.03-.14.06-.25.16-.52.38-.99.64-1.42.17-.27.55-.68,1.14-1.2.4-.36.74-.55.96-.55,0,0,.02,0,.02,0,.04.15.11.27.21.38-.24.26-.43.46-.57.61Zm51.06,0h0c-.09.12-.31.36-.65.74-.34.38-.63.69-.87.92-.23.23-.47.44-.71.61-.1.06-.17.11-.23.15.01-.06.03-.14.06-.25.16-.52.38-.99.64-1.42.17-.27.55-.68,1.14-1.2.4-.36.74-.55.96-.55,0,0,.02,0,.02,0,.04.15.11.27.21.38-.24.26-.43.46-.57.61Z"/><path class="cls-1" d="m320.73,285.62h0c-.1-.27-.25-.45-.45-.54-.19-.08-.42-.08-.67.02-2.72,1.15-5.23,2.6-7.48,4.29.24-1.2.43-2.37.59-3.49.07-.48-.12-.86-.55-1.06-.44-.21-.85-.09-1.18.35-.79,1.21-1.41,2.09-1.85,2.59-1.69,2-2.29,2-2.46,1.92-.06-.03-.11-.09-.15-.16-.04-.07-.07-.16-.09-.28-.02-.15-.03-.29-.03-.43s.02-.3.05-.48c.04-.21.07-.36.08-.48.02-.11.05-.25.08-.42.04-.21.06-.29.06-.34.17-.78.48-1.79.93-3,.15-.36.09-.69-.18-.93-.24-.22-.55-.3-.88-.24-.35.06-.6.28-.73.63l-.08.24c-.17.41-.3.74-.38.99-.04.12-.09.26-.15.44-.81.35-1.94.9-3.35,1.63-1.45.75-2.48,1.26-3.07,1.54-1.1.53-1.95.76-2.53.67-.51-.06-.88-.26-1.13-.61-.48-.68-.52-1.92-.12-3.72.05-.29.01-.71-.47-1.02-.4-.26-.81-.21-1.1.13l-.09.09c-.3-.32-.69-.5-1.15-.54-.54-.05-1.07.03-1.57.23-.49.19-.93.45-1.32.76-.29.23-.58.51-.84.84-.06.01-.12.03-.19.05-2.29.99-4.73,1.26-7.27.79-.19-.68-.54-1.24-1.03-1.67-.55-.48-1.23-.65-2.01-.5-.06.01-.12.02-.18.04.02-.07.05-.14.08-.23,2.38-2.2,3.68-2.72,4.89-4.57.85-1.31,1.37-2.5,1.54-3.55.26-1.45.03-2.39-.69-2.78-1.02-.56-2.06-.29-3.09.8-1.26,1.33-2.64,4.19-4.1,8.51l-4.63,2.67c-.45.26-.6.83-.34,1.28.26.45.83.6,1.28.34l2.66-1.54c-.03.08-.06.16-.08.22-.14.38-.33.93-.56,1.65-.24.74-.37,1.34-.39,1.81-.02.46,0,.94.06,1.42.06.55.3.96.71,1.23.39.25.91.36,1.53.32.82-.04,1.65-.33,2.46-.88.81-.54,1.39-1.21,1.75-1.98.09-.21.16-.43.22-.67,2.04.3,4.09.18,6.08-.36-.13.44-.19.86-.18,1.25.02.79.34,1.33.96,1.62.61.28,1.23.21,1.87-.21.87-.59,1.9-1.54,3.05-2.84.07.71.27,1.34.6,1.9.42.66.98,1.12,1.68,1.36.68.24,1.44.29,2.25.15.14-.02.27-.04.41-.07.14-.03.29-.08.45-.14.13-.05.25-.1.36-.13.12-.04.26-.09.42-.16.16-.07.28-.12.37-.16.09-.04.22-.1.42-.2l.36-.18c.06-.03.18-.09.38-.2l.14-.07c.11-.06.18-.09.21-.11,1.47-.76,2.72-1.38,3.71-1.87-.04.28-.07.58-.09.9-.03.49,0,.9.08,1.24.08.35.24.68.46.98.23.31.54.56.92.73,1.25.49,2.64-.12,4.15-1.81-.13.58-.27,1.17-.42,1.75-.37.34-.72.68-1.04,1.02-.74.76-1.4,1.46-1.94,2.07-.55.61-1.15,1.37-1.8,2.25-.65.89-1.17,1.79-1.56,2.7-.39.92-.62,1.82-.67,2.69-.04.39-.03.8.03,1.23.06.42.16.85.3,1.26.16.45.42.81.77,1.07.3.22.64.33,1.02.33.09,0,.19,0,.28-.02.25-.04.5-.13.73-.25.23-.12.42-.24.59-.38.17-.14.34-.33.52-.6.17-.25.3-.45.4-.61.1-.17.22-.41.36-.72.14-.31.24-.53.3-.66.06-.13.15-.37.27-.71.11-.31.18-.48.21-.55,1.23-3.31,2.22-6.39,2.94-9.17,2.61-2.27,5.54-4.1,8.69-5.44l.11-.03.08-.04c.43-.29.57-.72.41-1.21Zm-40.94-6.87c.29-.69.54-1.25.74-1.65.24-.44.5-.88.79-1.31.96-1.38,1.26-1.38,1.27-1.38,0,0,.03.04.03.16,0,.16,0,.35-.05.55-.04.21-.11.44-.2.67-.09.25-.17.44-.23.59-.07.16-.12.29-.15.38-.4.82-.99,1.73-1.76,2.71-.41.53-.86,1.07-1.35,1.61.33-.88.63-1.66.9-2.34Zm-.55,8.99h0c-.17.55-.63,1.06-1.39,1.5-1.13.65-1.51.54-1.6.47-.08-.07-.13-.18-.15-.33-.02-.18,0-.42.07-.72.07-.31.15-.58.23-.81.08-.23.19-.52.32-.86.05-.12.09-.23.12-.31.3.16.75.35,1.37.59.34.12.7.24,1.07.36,0,.03-.02.07-.03.1Zm12.2-1.62h0c-.09.12-.31.36-.65.74-.34.38-.63.69-.87.92-.23.23-.47.44-.71.61-.1.06-.17.11-.23.15.01-.06.03-.14.06-.25.16-.52.38-.99.64-1.42.17-.27.55-.68,1.14-1.2.4-.36.74-.55.96-.55,0,0,.02,0,.02,0,.04.15.11.27.21.38-.24.26-.43.46-.57.61Zm16.58,11.09c-.07.21-.2.58-.38,1.12-.18.54-.32.95-.42,1.25-.1.3-.23.66-.39,1.1-.16.43-.32.83-.48,1.19-.16.36-.34.71-.52,1.04l-.03.06v.02s-.03.06-.05.1l-.31.56c-.05.09-.1.16-.14.24h-.06c-.15.05-.27.04-.36-.02-.1-.06-.16-.16-.21-.32-.06-.19-.09-.35-.1-.47,0-.13-.01-.3-.01-.5,0-.92.33-1.96.97-3.11.86-1.53,1.92-3.01,3.17-4.41-.22.71-.44,1.42-.68,2.14Z"/></svg>