<?xml version="1.0" encoding="UTF-8"?><svg id="Layer_1" xmlns="http://www.w3.org/2000/svg" viewBox="0 0 500 500"><defs><style>.cls-1{fill:#0c303a;}</style></defs><path class="cls-1" d="m313.18,262.01c.64,1.49,1.77,1.98,3.11,1.98.78.07,1.56.07,2.41.07l.64.42c.07.28.07.57.14.85-.28.21-.5.42-.71.64h-.85c-2.05-.07-4.11-.14-6.16-.14-1.13-.07-2.26,0-3.4.07-1.06.14-2.12.14-3.12.14-.78,0-1.56,0-2.26-.07-.5-.07-.99-.14-1.49-.21l-.42-.64c.07-.5.35-.92.78-1.13,1.34,0,2.69-.21,4.03-.64.35-.57.71-1.2.92-1.84-.14-1.2.07-2.41.07-3.61s0-2.41.07-3.68v-4.74c0-.78.07-1.49.07-2.27.07-.42.07-.92,0-1.34-.14-1.77-.21-3.54-.21-5.31,0-.35-.07-.71-.07-1.13v-2.19c.07-.5.07-.99,0-1.49-.07-.5-.07-1.06.07-1.49v-8.35c-.07-.42-.14-.85-.21-1.27l-.64-.71c-.07,0-.21.07-.35.14-.28.21-.5.57-.57.92-.5,1.7-.99,3.4-1.56,5.03-.14.57-.35,1.06-.5,1.56s-.35.99-.42,1.49c-.42,1.49-.92,2.9-1.34,4.39-.14.42-.28.85-.42,1.2-.64,1.63-1.2,3.33-1.63,5.03-.28.78-.5,1.56-.64,2.41-.21.78-.35,1.63-.64,2.41-.35,1.2-.78,2.41-1.13,3.61-.28.99-.5,1.91-.78,2.9-.21.64-.35,1.27-.57,1.91-.35,1.13-.71,2.33-1.13,3.47-.99.35-1.91.92-3.04.21-.21-.35-.35-.64-.5-.92-.5-1.42-.99-2.76-1.42-4.18-.43-1.2-.85-2.48-1.27-3.68-.35-1.2-.71-2.41-1.13-3.61-.14-.5-.28-.99-.5-1.56-.71-1.91-1.27-3.82-2.05-5.73-.78-1.98-1.35-3.96-2.05-5.95-.5-1.34-.85-2.69-1.27-4.11-.35-1.06-.57-2.26-.85-3.4-.07-.42-.28-.85-.64-1.2l-.35.21c-.21.64-.35,1.27-.35,1.98.07,1.7.07,3.4,0,5.17v11.89c.07,2.62.07,5.24.07,7.86,0,1.2-.07,2.48-.07,3.75,0,1.13.07,2.26.28,3.4,0,.21.07.35.14.57.21,1.56,1.56,2.62,3.11,2.62.64.07,1.27.21,1.91.57q.21.07.5.64l-.21.5-1.06.57h-12.74l-.85-.28c-.07-.14-.07-.21-.14-.28-.07-.57.14-1.2.64-1.49.42-.28.85-.42,1.35-.42.64-.07,1.2-.28,1.77-.64.71-.28,1.2-.85,1.34-1.56.14-.92.28-1.84.42-2.76.35-2.12.28-4.32.28-6.51.07-1.49-.07-2.97.07-4.53.14-1.49.14-3.04.14-4.6.07-1.42.07-2.83.07-4.25.07-.43.07-.78.14-1.13.07-.14.07-.35.07-.5-.07-.99-.07-1.91,0-2.83,0-.64-.21-1.27-.07-1.91.07-.57.07-1.13,0-1.7.07-.92-.07-1.84-.14-2.76,0-1.2.07-2.41.07-3.54.07-1.2,0-2.34-.28-3.47-.28-1.13-.99-1.63-1.98-1.84-.5-.14-1.06-.21-1.42-.35-.57-.35-.78-.71-.64-1.27.21-.35.64-.5,1.06-.5.85.07,1.7-.07,2.55.21.21.07.35.07.57.07,1.27,0,2.48.07,3.68,0,.99,0,2.05.14,2.97.42.5.99.92,1.98,1.2,3.04.07.21.07.42.14.57.5,1.56,1.06,3.04,1.56,4.53.43,1.13.71,2.34,1.13,3.47.35,1.13.78,2.27,1.13,3.4.35,1.06.71,2.12.99,3.11.35,1.13.57,2.19.92,3.26.5,1.63.99,3.26,1.49,4.81.5,1.49.99,3.04,1.49,4.53.14.64.42,1.2.78,1.77.28.14.64.07.85-.21.14-.21.21-.42.28-.64.5-1.63.85-3.26,1.42-4.88.64-1.84,1.13-3.82,1.77-5.73.42-1.13.78-2.26,1.13-3.47.57-1.84,1.13-3.75,1.7-5.66.5-1.98,1.27-3.89,1.7-5.88.14-.85.42-1.7.85-2.48.21-.43.42-.92.57-1.42.28-.92.85-1.7,1.63-2.2.64-.28,1.35-.42,2.05-.35h11.18l.71.99c0,.42-.28.78-.71.92-.5.21-.99.28-1.56.35-.85,0-1.63.21-2.41.57-.28.35-.5.78-.57,1.27-.21,1.06-.35,2.05-.5,3.12-.21.92-.21,1.84-.07,2.76-.07,1.49.21,2.97-.14,4.46v.5c.28,1.84.28,3.61,0,5.45-.07.71-.07,1.49,0,2.19-.07,2.12,0,4.25-.07,6.3-.07,1.42-.21,2.83-.21,4.32.07,2.48-.07,4.95.07,7.36.07,1.42.21,2.83.21,4.32Z"/><path class="cls-1" d="m364.07,264.07l.49.78-.42.71c-.5.28-1.06.42-1.63.42-1.13.07-2.19.07-3.26,0-1.84-.28-3.61.07-5.38,0h-6.72c-.71-.07-1.49-.14-2.2-.28-.5-.07-.92-.42-.99-.92l.21-.64c.42-.35.92-.64,1.49-.71.71-.14,1.42-.35,2.05-.71.57-.35.99-.85,1.2-1.56.42-1.42.35-2.9-.14-4.32-.21-.64-.64-1.2-1.2-1.63-.5-.07-1.06-.07-1.7-.07h-9.06c-.92.07-1.84,0-2.76,0h-1.49l-.92.57c-.28.5-.5.99-.64,1.49-.28.85-.5,1.77-.71,2.62-.14.78-.21,1.63.35,2.34.92.78,2.05,1.27,3.26,1.27.5.07.99.21,1.49.42.35.07.64.42.64.85,0,.14-.07.21-.07.35-.21.21-.42.42-.57.64-4.67.07-9.34.07-13.94.07-1.06-.64-1.13-.71-.85-1.77,1.13-.85,2.62-.85,3.89-1.34.64-.35,1.13-.78,1.49-1.34,1.28-1.77,1.84-3.82,2.48-5.88.35-1.27.71-2.62,1.13-3.89.35-1.42.78-2.76,1.2-4.18.42-1.34.78-2.76,1.2-4.11.57-1.91,1.06-3.82,1.56-5.66.21-.85.5-1.7.71-2.55.42-1.34.78-2.69,1.13-4.04.28-1.06.64-2.12,1.06-3.18.28-.78.5-1.56.71-2.41.14-.92.5-1.77.71-2.69.42-1.49.57-3.04.57-4.6l.42-.85c.85-.21,1.7-.35,2.48-.35s1.56.07,2.34.21c.35.21.57.57.71.92.78,2.83,1.7,5.66,2.62,8.42.14.42.21.85.35,1.35.78,2.26,1.49,4.6,2.12,6.94.5,2.05,1.13,4.11,1.7,6.16.21.57.42,1.13.57,1.7.5,1.77,1.13,3.54,1.7,5.38.28.92.57,1.91.85,2.9.21.78.5,1.56.78,2.33.42,1.35.71,2.69,1.2,3.96.5,1.27,1.13,2.55,1.7,3.82,0,.07.07.14.14.21.85.99,1.98,1.77,3.26,2.19.92-.07,1.7.42,2.69.64Zm-17.27-11.68q.35-.85.21-1.56c-.28-1.34-.64-2.69-.99-4.04-.21-.85-.42-1.7-.64-2.55-.14-.64-.28-1.27-.57-1.91-.43-1.2-.85-2.41-1.06-3.61-.21-.78-.42-1.56-.64-2.34-.21-.71-.35-1.49-.5-2.27-.07-.35-.14-.71-.28-.99-.57-1.42-.99-2.9-1.42-4.46-.21-.71-.42-1.42-.64-2.26-.14.21-.28.35-.42.57-.14.78-.35,1.49-.57,2.19-.42,1.06-.78,2.12-1.06,3.19-.64,2.48-1.56,4.88-2.19,7.36-.14.5-.35,1.06-.5,1.56-.42,1.56-.85,3.04-1.27,4.6-.14.71-.35,1.34-.5,2.05-.42,1.27-.78,2.55-1.2,3.82l.14.57,1.28.57h11.82l.99-.5Z"/><path class="cls-1" d="m366.05,265.41l-.35-.64c.07-.14.07-.28.14-.42.42-.5.99-.92,1.7-.92.42-.14.92-.14,1.34-.28,1.2-.28,2.2-.99,2.83-2.05,0-.99,0-2.05.07-3.11,0-1.2.07-2.41.14-3.61.14-1.77.14-3.54-.14-5.24,0-.42-.07-.78,0-1.13v-10.69c0-.57.07-1.06.14-1.63.07-1.13.07-2.26-.07-3.4,0-.21-.07-.5-.07-.71,0-1.77-.07-3.54-.07-5.31-.07-1.49-.14-3.19-.21-4.67,0-.57-.14-1.06-.42-1.56-.78-.57-1.63-.92-2.55-.92-.92-.07-1.84-.28-2.76-.64l-.28-.5c.07-.57.35-1.06.85-1.34.99-.28,2.05-.35,3.11-.14.43.07.85.07,1.27,0,.57-.07,1.13-.07,1.7-.07.71.14,1.34.14,2.05,0,.21-.07.5-.07.71,0,1.27.14,2.55.14,3.75,0,.57,0,1.2.14,1.77.14.64,0,1.27,0,1.91-.07.64-.14,1.28-.14,1.98,0,.21,0,.42.07.64.07.92-.07,1.84.07,2.69.35.85.28,1.7.85,2.48,1.2.71.28,1.34.64,1.98,1.06,1.34.85,2.69,1.91,3.82,3.04.71.64,1.27,1.27,1.84,2.05,1.35,1.84,2.41,3.82,3.12,5.95.71,1.77,1.2,3.61,1.63,5.45.14.78.28,1.63.43,2.41.14,1.63.28,3.26.28,4.88.14,2.05-.28,3.96-.5,5.88-.28,1.91-.85,3.75-1.7,5.52-.35.71-.71,1.42-1.2,2.05-.5.71-1.06,1.34-1.63,2.05-.14.14-.21.28-.28.42-1.34,2.05-3.33,3.68-5.66,4.6-.28.14-.57.28-.85.5-.92.57-1.91.92-2.9.99-1.56.28-3.11.14-4.67.28-.78.07-1.49.14-2.26.14h-12.67c-.5.07-.99.07-1.49.14-.57.14-1.13.07-1.63-.14Zm17.41-2.27c.99-.14,1.91-.35,2.83-.64,1.77-.57,3.33-1.77,4.32-3.4.57-.99,1.06-1.98,1.49-3.04.42-1.2.78-2.48.99-3.75.42-1.98.57-4.03.78-6.09.21-1.77.28-3.54.28-5.38.07-1.13,0-2.34-.14-3.47-.14-.85-.21-1.7-.35-2.48-.28-1.91-.71-3.82-1.42-5.59-.5-1.2-.92-2.48-1.42-3.68-.71-1.84-1.98-3.75-3.68-4.88-.99-.71-2.2-1.13-3.4-1.2-.28,0-.64-.07-.99-.14-.21.07-.5.14-.71.21-1.49.5-2.62,1.7-2.97,3.19-.14.71-.21,1.49-.28,2.26v3.4c0,1.2.07,2.41-.07,3.61-.07,1.35-.07,2.69,0,4.04.07,2.12,0,4.25.07,6.37,0,.71,0,1.34.14,2.05,0,.28,0,.57-.07.85-.07.64-.07,1.34,0,1.98.07,1.2.07,2.34,0,3.54-.07.64,0,1.34,0,1.98.07.28.07.57,0,.85-.07.64-.07,1.27-.07,1.91.07.71.07,1.42.14,2.12.07.57.14,1.2.21,1.77.35,1.42,1.34,2.55,2.62,3.19.21.07.35.14.42.21l1.27.21Z"/><path class="cls-1" d="m419.85,238.94c.14.14.28.21.5.21,1.91.28,3.82.28,5.59-.71,1.13-.64,1.98-1.56,2.55-2.69.35-.78.64-1.63.78-2.55.07-.57.28-1.2.5-1.77.14-.5.5-.85.92-.99.5-.07.99.21,1.13.64.28.57.42,1.13.35,1.7-.07,1.84.07,3.68-.21,5.52,0,.28,0,.5.07.78.07.78.07,1.56,0,2.34-.07.57-.07,1.2,0,1.77.07.5.14,1.06.14,1.63,0,1.06,0,2.05.07,3.11.14.85.07,1.77-.14,2.62l-.64.71c-.35.14-.85.07-1.2-.14-.35-.99-.57-1.98-.78-2.97-.07-.35-.21-.71-.35-1.06-.42-.99-.99-1.98-1.34-2.69-1.13-1.27-2.48-1.56-3.68-2.05-.99-.42-1.98-.21-2.97-.28-.28.07-.57.14-.85.28-.99.5-1.56,1.49-1.49,2.62.14,1.06.07,2.12.21,3.26.14,1.06.14,2.12.07,3.26v4.39c0,.21,0,.42.07.64.07.85.14,1.63.21,2.48,0,1.2.5,2.34,1.27,3.18.78.78,1.77,1.35,2.83,1.56.92.21,1.91.28,2.83.21h.92c1.27.07,2.55-.07,3.82-.5,1.27-.42,2.41-1.13,3.33-2.12.92-1.06,1.7-2.27,2.26-3.61.71-1.34,1.28-2.76,1.63-4.18.35-1.2.85-2.41,1.27-3.54.28-.71.78-1.27,1.42-1.63h.92l.64.78c.07.92,0,1.84-.14,2.69-.5,1.98-.78,3.96-.92,5.95-.07,1.2-.35,2.41-.57,3.61-.14.71-.28,1.49-.35,2.27.07.92-.5,1.77-1.27,2.26-1.2.28-2.41.42-3.61.35h-11.82c-.21,0-.35,0-.5-.07-2.12-.35-4.18-.21-6.3-.21-2.34-.07-4.67,0-7.08,0-.35,0-.78,0-1.2.07-.64.14-1.27.21-1.98.21-.42-.21-.71-.71-.64-1.2.42-.57,1.06-.99,1.77-1.06.5-.07.99-.21,1.49-.28.57-.14,1.13-.42,1.7-.78.35-.21.57-.57.71-.99.28-.64.43-1.34.43-2.05.07-1.06.07-2.12.07-3.19.07-1.34,0-2.69.07-3.96-.07-.21,0-.35,0-.57.28-1.77.28-3.54.14-5.38-.14-1.77-.07-3.47-.21-5.24-.07-1.13-.14-2.27-.14-3.4,0-.42.07-.92.07-1.34.07-.57.07-1.13.07-1.63,0-.71-.14-1.35-.14-2.05.07-.64,0-1.27,0-1.98-.07-.71-.07-1.42-.07-2.12-.07-1.2,0-2.62-.07-3.89,0-1.2-.14-2.41-.21-3.61-.14-.21-.28-.5-.42-.78l-1.13-.71-3.82-.64-.42-.42c-.07-.07-.14-.21-.21-.35,0-.14,0-.21.07-.28.07-.21.21-.35.35-.57.28-.35.78-.64,1.27-.64h10.33c2.12,0,4.18-.07,6.3.07,1.7.07,3.4-.14,5.17-.07,1.56.07,3.19-.07,4.74.21.64.07,1.35.07,1.98.07.92.07,1.84.42,2.55.99.5.35.85.78,1.06,1.34.28,1.06.71,1.98.71,3.04,0,.57.07,1.06.21,1.56.28,1.63.42,3.61.85,5.24.07.35.14.64.14.99,0,.42.07.85.07,1.49l-.14.78-.57.64h-.85c-.14-.14-.28-.21-.35-.28-.35-.35-.57-.78-.64-1.27-.21-.85-.57-1.7-.92-2.55-.21-.42-.42-.92-.57-1.42-.71-2.05-2.05-4.11-3.75-5.45-.35-.21-.64-.42-.92-.71-1.27-.85-2.69-1.56-4.18-1.91-.21-.07-.5-.14-.71-.21-.71-.28-1.42-.35-2.12-.28-1.56.14-3.11.57-4.53,1.42-.64.35-1.2.92-1.63,1.56-.21.28-.35.71-.42,1.13-.07.78-.07,1.49-.07,2.27.07.28.07.78,0,1.06-.14.71-.14,1.42-.14,2.12v4.53c0,.78-.07,1.56-.21,2.41-.21,1.13.14,1.98.99,3.04Z"/><path class="cls-1" d="m74.31,221.52c0,1.7-.07,3.75-.07,5.52v.71c-.21.92-.28,1.84-.21,2.76,0,1.56,0,3.11-.07,4.67,0,.5.07.99.07,1.49,0,.57.35,1.13.85,1.34h4.39c.64,0,1.27-.07,1.91-.14.85-.07,1.63-.14,2.48-.07h5.45c.57-.14.99-.5,1.35-.99,0-.92.21-1.84.07-2.83,0-.71,0-1.42.07-2.12,0-.99-.14-1.98-.14-2.97-.07-1.06-.07-2.12-.07-3.18-.07-1.2-.21-2.62-.21-3.82,0-.71-.42-1.34-1.06-1.63-.21-.14-.42-.28-.57-.35-1.13-.21-2.19-.42-3.26-.64-.5-.07-.92-.35-1.13-.78-.07-.35-.07-.71.14-.99.21-.35.57-.49.99-.57,1.13-.14,2.27-.21,3.4-.21h5.24c.92,0,1.77-.07,2.69-.14,1.7-.14,3.4-.14,5.1.07.42,0,.78.07,1.27.14l.71.71c-.14.43-.28.78-.35,1.06-.78.35-1.56.57-2.34.64-.57.07-1.2.21-1.7.42-.92.28-1.56,1.13-1.63,2.05-.07,2.05-.21,4.18-.21,6.16-.07,1.98,0,3.89-.07,5.8,0,.57-.07,1.2-.14,1.77-.07.42-.07.85,0,1.27.21,1.77-.07,3.54-.07,5.38v4.88c.07,1.06.14,2.19.21,3.26v3.12c.07,1.34.07,2.69.07,4.03v.28c.21,1.06.28,2.19.21,3.26.71,1.13,1.77,1.7,2.83,2.34l2.41.35c.64.28.99,1.06.71,1.7-.35.28-.78.5-1.27.5-.78-.07-1.56,0-2.34-.07-1.13-.21-2.19-.21-3.26,0-.28.07-.5.07-.78.07h-7.93c-.21,0-.42,0-.64.07-.78.28-1.63.14-2.48.14-.35-.28-.71-.64-.92-1.06.07-.64.64-1.2,1.27-1.27.42-.14.78-.14,1.13-.21,2.55-.07,4.18-2.41,4.25-4.39,0-.92.07-1.91.07-2.83,0-.85,0-1.63.14-2.41v-1.13c-.07-.71-.14-1.42-.07-2.12.07-.64-.07-1.2-.07-1.84.07-.57.07-1.2.07-1.77s0-1.13-.14-1.7c-.14-.92-.28-1.77-.42-2.62-.28-1.06-.78-1.56-1.84-1.56-1.42-.07-2.76,0-4.18,0-1.06,0-2.05.07-3.11,0-.14,0-.28,0-.35.07-1.49.14-2.97.21-4.39.21-.5,0-.99.14-1.42.35l-.57.71c-.35,1.56-.57,3.19-.42,4.74,0,1.7.07,3.4.07,5.03.14,2.9.21,5.73.28,8.64.64,1.34,1.98,1.98,3.11,2.55l2.41.35c.5.64.71,1.2.21,1.98-.28,0-.57.07-.85.07h-10.9c-.92.07-1.84.14-2.76.21-1.06,0-2.12.07-3.11.21-.21.07-.5.07-.71.07-.14-.14-.35-.28-.57-.5-.14-.14-.21-.35-.35-.5,0-.71.57-1.35,1.27-1.56.35-.07.78-.14,1.13-.21.5-.07,1.06-.21,1.49-.28.57-.28,1.06-.64,1.49-1.13.78-.99,1.2-2.19,1.27-3.47.07-1.42.07-2.9.21-4.39,0-.28-.07-.57-.07-.85-.07-1.63-.07-3.19-.14-4.81,0-.5-.07-.99-.07-1.49v-.5c.14-1.13.07-2.34-.07-3.47-.07-.64-.07-1.2-.07-1.77,0-1.42-.07-2.76-.07-4.18,0-.35.07-.71.07-1.13.07-1.7,0-3.47-.14-5.24v-.28c.28-1.35-.14-2.62-.07-3.96,0-1.13,0-2.55-.07-3.68,0-.5-.07-.99-.21-1.49-.21-.78-.78-1.35-1.56-1.49-1.06-.35-2.12-.57-3.26-.5l-.92-.57c-.07-.42-.07-.78-.14-1.13.07-.07.14-.21.28-.35.35-.35.92-.57,1.49-.5,1.13,0,2.27,0,3.4-.07,1.35,0,2.76-.07,4.11-.14,1.27,0,2.48-.07,3.68-.07h4.88c.64,0,1.2.35,1.56.85,0,.21.07.42.07.64-.07.14-.14.28-.21.35-.28.21-.57.42-.92.42-.92.21-1.91.42-3.11.71-.85.28-1.56,1.06-1.77,1.98Z"/><path class="cls-1" d="m148.35,264.07l.5.78-.42.71c-.5.28-1.06.42-1.63.42-1.13.07-2.19.07-3.26,0-1.84-.28-3.61.07-5.38,0h-6.72c-.71-.07-1.49-.14-2.19-.28-.5-.07-.92-.42-.99-.92l.21-.64c.42-.35.92-.64,1.49-.71.71-.14,1.42-.35,2.05-.71.57-.35.99-.85,1.2-1.56.42-1.42.35-2.9-.14-4.32-.21-.64-.64-1.2-1.2-1.63-.5-.07-1.06-.07-1.7-.07h-9.06c-.92.07-1.84,0-2.76,0h-1.49l-.92.57c-.28.5-.5.99-.64,1.49-.28.85-.5,1.77-.71,2.62-.14.78-.21,1.63.35,2.34.92.78,2.05,1.27,3.26,1.27.5.07.99.21,1.49.42.35.07.64.42.64.85,0,.14-.07.21-.07.35-.21.21-.42.42-.57.64-4.67.07-9.34.07-13.94.07-1.06-.64-1.13-.71-.85-1.77,1.13-.85,2.62-.85,3.89-1.34.64-.35,1.13-.78,1.49-1.34,1.27-1.77,1.84-3.82,2.48-5.88.35-1.27.71-2.62,1.13-3.89.35-1.42.78-2.76,1.2-4.18.42-1.34.78-2.76,1.2-4.11.57-1.91,1.06-3.82,1.56-5.66.21-.85.5-1.7.71-2.55.42-1.34.78-2.69,1.13-4.04.28-1.06.64-2.12,1.06-3.18.28-.78.5-1.56.71-2.41.14-.92.5-1.77.71-2.69.42-1.49.57-3.04.57-4.6l.42-.85c.85-.21,1.7-.35,2.48-.35s1.56.07,2.34.21c.35.21.57.57.71.92.78,2.83,1.7,5.66,2.62,8.42.14.42.21.85.35,1.35.78,2.26,1.49,4.6,2.12,6.94.5,2.05,1.13,4.11,1.7,6.16.21.57.42,1.13.57,1.7.5,1.77,1.13,3.54,1.7,5.38.28.92.57,1.91.85,2.9.21.78.5,1.56.78,2.33.42,1.35.71,2.69,1.2,3.96.5,1.27,1.13,2.55,1.7,3.82,0,.07.07.14.14.21.85.99,1.98,1.77,3.26,2.19.92-.07,1.7.42,2.69.64Zm-17.27-11.68q.35-.85.21-1.56c-.28-1.34-.64-2.69-.99-4.04-.21-.85-.42-1.7-.64-2.55-.14-.64-.28-1.27-.57-1.91-.42-1.2-.85-2.41-1.06-3.61-.21-.78-.42-1.56-.64-2.34-.21-.71-.35-1.49-.5-2.27-.07-.35-.14-.71-.28-.99-.57-1.42-.99-2.9-1.42-4.46-.21-.71-.42-1.42-.64-2.26-.14.21-.28.35-.42.57-.14.78-.35,1.49-.57,2.19-.42,1.06-.78,2.12-1.06,3.19-.64,2.48-1.56,4.88-2.19,7.36-.14.5-.35,1.06-.5,1.56-.42,1.56-.85,3.04-1.27,4.6-.14.71-.35,1.34-.5,2.05-.42,1.27-.78,2.55-1.2,3.82l.14.57,1.27.57h11.82l.99-.5Z"/><path class="cls-1" d="m182.11,249.2l.57.07c.14-.14.35-.28.35-.5.21-1.27.21-2.55.14-3.82v-.64c.14-2.19.21-4.39.14-6.51,0-1.35-.07-2.69-.07-4.04,0-.85-.07-1.7,0-2.48.14-1.34-.21-2.69-.28-4.03-.07-.35-.07-.71-.07-1.13,0-1.42-.5-2.76-.85-4.18-.14-.5-.5-.92-.92-1.13-.57-.35-1.2-.64-1.84-.78-.5-.07-.92-.21-1.34-.35-.71-.14-1.35-.5-1.84-.99,0-.35.07-1.2.21-1.49,3.11,0,4.11-.14,5.88-.14.99.14,2.05.14,3.11.07.92-.21,1.91-.21,2.9.07.28,0,.64,0,.99-.07.85-.21,1.84-.07,2.69.21.35.28.57.78.5,1.27-.57.71-1.56.64-2.55,1.06-.35.21-.85.57-1.34.99-.78.57-1.49,1.35-1.91,2.27-.14.21-.21.42-.28.71-.14.78-.28,1.56-.42,2.34v.64c.21.92.28,1.91.14,2.9v2.26c0,2.62.07,5.24.07,7.86,0,.5-.14.92-.21,1.42v3.26c-.07,3.26-.07,6.51-.07,9.77-.07,1.13,0,2.27.21,3.4.07.57.07,1.13.07,1.63,0,1.06,0,2.12.07,3.18-.07.21-.07.5,0,.71.28.99.07,2.05.07,2.9-.14.42-.5.78-.92.92-.42.07-.85,0-1.2-.21-.28-.07-.42-.21-.64-.42-.35-.57-.71-1.13-.99-1.7-.99-2.12-2.05-4.11-3.19-6.16-1.2-2.05-2.41-4.11-3.61-6.16-.92-1.63-1.91-3.19-2.9-4.74-.57-.99-1.13-1.91-1.7-2.9-.5-.92-.92-1.91-1.42-2.83-.57-1.06-1.2-2.19-1.84-3.26-.71-1.34-1.34-2.62-2.05-3.89-.5-.92-.92-1.91-1.42-2.83-.5-.92-.92-1.84-1.42-2.76-.5-.92-.99-1.77-1.49-2.62-.07-.07-.14-.14-.21-.21-.07,0-.14,0-.21.07-.07,0-.14.07-.14.14-.14.28-.21.57-.21.85v3.4c-.07,1.98,0,3.96-.07,5.95,0,1.49-.07,2.97-.14,4.53.07.21.07.42.07.57.07.28.07.5.07.78-.28,1.27-.14,2.48-.14,3.75-.07,1.27-.07,2.55-.21,3.75-.14.99-.14,2.05-.07,3.04v3.75c0,1.2.14,2.41.35,3.61.07.71.35,1.34.78,1.91,1.34.92,2.97,1.49,4.67,1.63.71.07,1.34.21,1.7,1.06l-.28.78c-.14.07-.21.14-.28.21-.42.21-.85.28-1.27.21-2.83-.14-5.66.07-8.56,0h-6.44l-.5-.71c.07-.42.07-.85.14-1.27l.92-.71c1.06-.14,1.98-.14,2.83-.35.57-.21,1.13-.42,1.7-.64.57-.92.92-1.98.99-3.11.14-1.56.28-3.19.35-4.74.07-.42-.07-.85-.07-1.27v-3.96c0-.35.07-.64.07-.92.07-.71.07-1.49.07-2.26.07-1.06.14-2.19.21-3.33,0-.28.07-.5,0-.78,0-1.34-.14-2.62-.07-3.96,0-.42.07-.85.07-1.27,0-.21.07-.42.07-.64,0-2.26-.07-4.6,0-6.87,0-.5.07-.99.07-1.56-.07-1.42,0-2.83-.07-4.25,0-.99-.21-1.98-.71-2.9-.5-.35-.99-.64-1.63-.71-1.06-.21-2.12-.42-3.19-.64-.64-.07-1.27-.5-1.56-1.13.14-.85.92-.85,1.49-1.06,2.62,0,5.17-.07,7.72,0,1.13,0,2.27.14,3.4.28.64.07,1.2.42,1.49.99.21.43.42.85.57,1.27.42,1.06.99,2.05,1.56,2.97.85,1.34,1.7,2.62,2.62,3.89.64,1.56,1.77,2.83,2.41,4.39.35.85.85,1.63,1.27,2.41.35.64.64,1.2.92,1.84.28.42.57.92.78,1.42.21.35.35.64.57.99.14.28.28.57.42.92,1.34,2.19,2.62,4.39,3.89,6.58.57.92,1.06,1.91,1.63,2.83.28.43.5.85.85,1.35Z"/><path class="cls-1" d="m193.79,265.41l-.35-.64c.07-.14.07-.28.14-.42.42-.5.99-.92,1.7-.92.42-.14.92-.14,1.34-.28,1.2-.28,2.19-.99,2.83-2.05,0-.99,0-2.05.07-3.11,0-1.2.07-2.41.14-3.61.14-1.77.14-3.54-.14-5.24,0-.42-.07-.78,0-1.13v-10.69c0-.57.07-1.06.14-1.63.07-1.13.07-2.26-.07-3.4,0-.21-.07-.5-.07-.71,0-1.77-.07-3.54-.07-5.31-.07-1.49-.14-3.19-.21-4.67,0-.57-.14-1.06-.42-1.56-.78-.57-1.63-.92-2.55-.92-.92-.07-1.84-.28-2.76-.64l-.28-.5c.07-.57.35-1.06.85-1.34.99-.28,2.05-.35,3.11-.14.42.07.85.07,1.27,0,.57-.07,1.13-.07,1.7-.07.71.14,1.34.14,2.05,0,.21-.07.5-.07.71,0,1.27.14,2.55.14,3.75,0,.57,0,1.2.14,1.77.14.64,0,1.27,0,1.91-.07.64-.14,1.27-.14,1.98,0,.21,0,.42.07.64.07.92-.07,1.84.07,2.69.35.85.28,1.7.85,2.48,1.2.71.28,1.34.64,1.98,1.06,1.34.85,2.69,1.91,3.82,3.04.71.64,1.27,1.27,1.84,2.05,1.35,1.84,2.41,3.82,3.11,5.95.71,1.77,1.2,3.61,1.63,5.45.14.78.28,1.63.42,2.41.14,1.63.28,3.26.28,4.88.14,2.05-.28,3.96-.5,5.88-.28,1.91-.85,3.75-1.7,5.52-.35.71-.71,1.42-1.2,2.05-.5.71-1.06,1.34-1.63,2.05-.14.14-.21.28-.28.42-1.34,2.05-3.33,3.68-5.66,4.6-.28.14-.57.28-.85.5-.92.57-1.91.92-2.9.99-1.56.28-3.11.14-4.67.28-.78.07-1.49.14-2.27.14h-12.67c-.5.07-.99.07-1.49.14-.57.14-1.13.07-1.63-.14Zm17.41-2.27c.99-.14,1.91-.35,2.83-.64,1.77-.57,3.33-1.77,4.32-3.4.57-.99,1.06-1.98,1.49-3.04.42-1.2.78-2.48.99-3.75.42-1.98.57-4.03.78-6.09.21-1.77.28-3.54.28-5.38.07-1.13,0-2.34-.14-3.47-.14-.85-.21-1.7-.35-2.48-.28-1.91-.71-3.82-1.42-5.59-.5-1.2-.92-2.48-1.42-3.68-.71-1.84-1.98-3.75-3.68-4.88-.99-.71-2.19-1.13-3.4-1.2-.28,0-.64-.07-.99-.14-.21.07-.5.14-.71.21-1.49.5-2.62,1.7-2.97,3.19-.14.71-.21,1.49-.28,2.26v3.4c0,1.2.07,2.41-.07,3.61-.07,1.35-.07,2.69,0,4.04.07,2.12,0,4.25.07,6.37,0,.71,0,1.34.14,2.05,0,.28,0,.57-.07.85-.07.64-.07,1.34,0,1.98.07,1.2.07,2.34,0,3.54-.07.64,0,1.34,0,1.98.07.28.07.57,0,.85-.07.64-.07,1.27-.07,1.91.07.71.07,1.42.14,2.12.07.57.14,1.2.21,1.77.35,1.42,1.34,2.55,2.62,3.19.21.07.35.14.42.21l1.27.21Z"/><path class="cls-1" d="m281.99,187.64c-.11-.88-.42-1.71-.81-2.49-.29-.59-.58-1.17-.89-1.75.21.02.47-.03.54-.12.18-.24.02-.44-.1-.62-1.27-1.96-2.53-3.93-3.83-5.88-.32-.48-.71-.94-1.15-1.32-2.1-1.86-4.24-3.67-6.86-4.81-1.12-.49-2.22-1.04-3.32-1.57-5-2.41-10.26-2.99-15.72-2.34-.38.05-.75.12-1.13.2.05-.05.1-.11.14-.16.29-.36.59-.73.91-1.07,1.97-2.08,4-4.1,6.18-5.96,2.5-2.14,5.38-3.72,8.23-5.32,1.16-.65,2.38-1.27,3.78-1.29.17,0,.34-.08.5-.14.36-.15.61-.52.6-.88.09-.03.19-.06.28-.09.4-.14.44-.73.12-1.02-.23-.21-.49-.34-.79-.34-.64,0-1.3-.04-1.92.08-3.51.65-6.96,1.5-10.15,3.16-2.81,1.47-5.43,3.22-7.53,5.63-1.89,2.16-3.49,4.53-4.87,7.05-.18.32-.21.82-.87.88-1.34-1.68-2.97-3.17-4.64-4.63-1.97-1.72-4.15-3.03-6.75-3.52-1.14-.22-2.3-.41-3.46-.48-1.69-.09-3.39-.01-5.08-.08-1.25-.05-2.42.35-3.62.57-.61.12-1.05.49-1.38,1-.18.27-.28.59-.14.88-.05,0-.11,0-.16-.02-.27-.04-.56.16-.63.49-.06.31.03.59.26.79.5.45,1.1.62,1.77.65,1.11.05,2.22.12,3.32.22,1.34.12,2.66.4,3.91.91,2.87,1.17,5.54,2.74,8.28,4.18.35.18.87.39.89.78.03.59-.66.55-1.04.77-.65.38-1.35.69-2.03,1.04-3.32,1.7-6.09,4.09-8.63,6.78-1.89,2-3.5,4.23-5.02,6.51-1.71,2.57-3.34,5.18-4.42,8.13-.97,2.62-1.47,5.27-1.65,8.02-.02.29,0,.58.02.88,0,.11.04.23.08.34.09.23.26.39.5.43.25.04.48-.07.56-.32.36-1.06.82-2.07,1.32-3.06.12-.07.23-.17.32-.28.2-.28.35-.6.49-.92.35-.76.69-1.53,1.04-2.29,1.87-3.39,3.94-6.66,6.38-9.7,4.74-5.9,10.63-10.11,17.98-12.16.52-.14.75-.03.86.54.37,1.95.71,3.91,1.07,5.86.24,1.32.56,2.63.7,3.96.28,2.55.47,5.12.67,7.68.37,4.66.8,9.31.86,13.99.01.99-.06,1.99,0,2.98.17,3.09.43,6.18.56,9.27.12,2.8.28,15.6.64,18.38.16,1.22.34,2.43.4,3.66.15,2.86.38,5.71.36,8.58,0,1.63.1,3.27.17,4.9.16,3.62.42,7.23.33,10.86-.02.63.13,1.27.21,1.91.07.57.36.98.93,1.15.56.17,1.02-.01,1.42-.43.39-.41.76-.84,1.06-1.29.18.02.36-.08.47-.22.59-.7.8-1.55.85-2.44.18-2.86.25-5.72.16-8.58-.06-1.99-.17-3.97-.13-5.96.09-4.68-.22-19.35-.57-24.01-.13-1.69-.35-3.37-.46-5.06-.34-5.19-1.02-10.35-1.63-15.51-.48-4.12-1.04-8.23-1.55-12.34-.43-3.42-1.08-6.81-1.86-10.16-.46-1.99-.95-3.98-1.44-5.96,1.44,1.45,2.88,2.9,4.34,4.32,2.8,2.72,4.95,5.89,6.76,9.32.92,1.76,1.9,3.49,2.55,5.37.24.68.66.91,1.17.78.49-.13.77-.58.71-1.25-.04-.46-.09-.94-.21-1.38-.96-3.56-2.11-7.04-4.04-10.23-1.81-2.98-3.91-5.66-6.75-7.72-.66-.48-1.33-.95-2-1.42-.19-.13-.43-.25-.41-.51.03-.33.34-.26.55-.28,3.98-.36,7.94-.11,11.89.41,2.04.27,4.05.77,5.82,1.81,2.36,1.39,4.73,2.8,6.81,4.61,1.37,1.19,2.75,2.36,4.08,3.59.6.55,1.15,1.17,1.63,1.82.82,1.13,1.8,2.16,2.26,3.52.1.29.53.44.72.31.21-.15.27-.37.24-.61Z"/><path class="cls-1" d="m175.43,290.28c.23-.48.23-.98,0-1.45-.17-.35-.54-.76-1.3-.76h-8.32c.96-1.98,1.91-3.81,2.83-5.46.15-.31.21-.63.17-.95-.04-.34-.2-.63-.46-.84-.22-.18-.46-.32-.73-.39-.29-.08-.58-.07-.87.03-.3.11-.55.32-.76.66-1.09,2-2.25,4.34-3.46,6.95h-11.62c-.6,0-1.05.26-1.32.75-.26.47-.26.98,0,1.47.26.51.72.78,1.32.78h10.28c-.8,1.78-1.89,4.31-3.27,7.54-.12.3-.47,1.12-1.04,2.46-.58,1.35-.96,2.24-1.14,2.68-.18.43-.51,1.26-1,2.47-.49,1.22-.85,2.13-1.07,2.72-.22.59-.53,1.44-.91,2.52-.39,1.09-.69,2.03-.9,2.79-.21.76-.33,1.19-.48,2.08-.12.63-.2,1.11-.25,1.45-.05.34-.08.83-.09,1.49-.02.7.09,1.3.33,1.79.25.51.62.9,1.12,1.14.27.14.52.19.74.19.34,0,.61-.13.81-.26.45-.31.69-.74.69-1.25,0-.15-.02-.33-.1-.52-.31-.78-.46-1.62-.27-2.44.5-2.13,1.41-5.65,1.9-7.02.72-2.01,1.6-4.26,2.6-6.71,2.19-5.47,4.05-9.89,5.54-13.14h9.73c.6,0,1.06-.27,1.3-.79Z"/><path class="cls-1" d="m276.18,299.2c-1.31.56-3.14,1.46-5.47,2.66-2.32,1.19-3.97,2.02-4.91,2.47-1.76.85-3.12,1.21-4.05,1.07-.82-.09-1.41-.41-1.81-.97-.77-1.08-.84-3.07-.19-5.94.08-.47.02-1.13-.76-1.64-.64-.42-1.29-.34-1.76.21l-.14.14c-.48-.5-1.1-.79-1.84-.86-.86-.08-1.71.04-2.5.36-.78.31-1.48.72-2.1,1.21-.41.32-.82.72-1.21,1.17-4.12.14-7.8.75-10.94,1.82-.02-1.11-.33-2.12-.91-2.98-.71-1.05-1.76-1.65-3.13-1.78-1.53-.13-3.12.42-4.77,1.62l1.74-4.64c.26-.72-.02-1.19-.3-1.46-.37-.35-.86-.49-1.4-.39-.56.1-.96.45-1.16.99-.95,2.5-1.79,4.73-2.54,6.73-.16.05-.3.12-.42.21-.06.03-.18.1-.37.22-.5.38-.91.68-1.23.9l-1.54,1.05c-.68.46-1.27.83-1.75,1.09-.49.27-1.11.6-1.85,1-.72.39-1.36.68-1.9.86-.56.19-1.18.39-1.86.6-.63.19-1.21.27-1.71.25-.51-.03-1.03-.11-1.54-.25-.47-.13-.89-.37-1.26-.71-.37-.34-.68-.81-.94-1.41-.09-.15-.23-.54-.4-1.52-.16-.9-.41-1.57-.77-2.04-.4-.53-1.04-.77-1.91-.69-.97.13-1.93.55-2.86,1.28.01-.96-.14-1.7-.45-2.24-.34-.57-1.11-1.08-2.85-.3-.76.34-1.51.8-2.26,1.38.11-.41.21-.84.33-1.3.2-.76-.12-1.22-.42-1.48-.4-.34-.89-.48-1.41-.38-.56.1-.94.49-1.06,1.08-.22.86-.44,1.69-.66,2.49-.13.03-.25.07-.35.13-1.31.56-3.15,1.46-5.48,2.66-2.31,1.19-3.96,2.02-4.91,2.47-1.76.85-3.11,1.21-4.05,1.07-.82-.09-1.41-.41-1.81-.97-.77-1.08-.84-3.07-.19-5.94.08-.47.02-1.13-.76-1.64-.64-.42-1.29-.34-1.76.21l-.14.14c-.48-.5-1.1-.79-1.84-.86-.86-.08-1.71.04-2.5.36-.78.31-1.48.72-2.1,1.21-.99.77-1.87,1.87-2.62,3.27-.76,1.41-1.13,2.73-1.09,3.92.03,1.26.55,2.13,1.53,2.58.96.45,1.97.33,2.98-.34,1.4-.94,3.03-2.47,4.88-4.54.11,1.13.43,2.15.96,3.04.67,1.05,1.57,1.78,2.68,2.17,1.09.38,2.3.46,3.6.24.22-.03.44-.07.65-.12.23-.05.47-.12.71-.22.21-.09.41-.16.58-.21.19-.06.41-.15.67-.25.26-.11.45-.19.59-.25.14-.06.36-.17.66-.32l.58-.29c.09-.04.29-.15.61-.32l.22-.12c.18-.09.28-.15.33-.17,2.55-1.31,4.68-2.38,6.34-3.18-.36,1.22-.71,2.34-1.03,3.33-.12.31-.22.6-.28.84-.16.57-.03,1.06.39,1.44.39.35.87.49,1.39.39.56-.1.94-.46,1.1-1.02.43-1.48,1.38-3.13,2.82-4.88,1.04-1.26,1.9-2.14,2.57-2.64-.05.61-.19,1.4-.43,2.35-.49,1.93-.57,2.44-.59,2.66-.08.73.31,1.27,1.08,1.47.76.2,1.37-.05,1.72-.68.41-.71.74-1.25.97-1.64.22-.36.57-.81,1.04-1.32.46-.5.93-.89,1.39-1.17.09-.05.17-.1.24-.13,0,.13.02.24.05.32.06.47.16.89.29,1.24.4,1.12,1.01,2.09,1.81,2.89.81.81,1.78,1.35,2.88,1.6,1.22.31,2.63.27,3.77.14.58-.06,1.25-.23,1.98-.49.71-.25,1.32-.47,1.81-.65.51-.19,1.15-.5,1.91-.94l1.69-.98c.4-.23.98-.6,1.72-1.11l.04-.02c-.27.72-.51,1.38-.74,2-.11.32-.23.6-.35.88-.74,1.84-1.73,4.58-2.94,8.16-.87,2.44-1.72,4.84-2.53,7.2h-.11s0,.41,0,.41c0,.03-.02.07-.05.13-.04.1-.07.18-.12.3-.2.71.08,1.17.36,1.43.3.28.66.43,1.07.43.11,0,.22-.01.33-.03.56-.1.96-.45,1.16-1.01l.11-.33c.04-.11.07-.19.11-.27.56-1.48,1.34-3.75,2.32-6.73,1-2.8,2.15-5.94,3.42-9.32,1.47-3.35,3.39-5.76,5.71-7.16.51-.3,1.02-.48,1.52-.55.47-.06.87-.01,1.19.14.31.15.53.41.69.81.16.41.18.94.04,1.59-.02.11-.04.21-.07.32-.6.3-1.17.61-1.7.92-2.84,1.78-4.3,3.54-4.46,5.38-.07.74.07,1.31.41,1.69.35.39.82.58,1.38.54.47-.03.95-.15,1.42-.34.46-.19.88-.44,1.23-.72,1.87-1.48,3.25-3.25,4.11-5.26,2.73-1.16,6.03-1.89,9.83-2.18-.44,1.04-.65,2.02-.62,2.91.03,1.26.55,2.13,1.53,2.58.96.45,1.97.33,2.98-.34,1.4-.94,3.03-2.47,4.88-4.54.11,1.13.43,2.15.96,3.04.67,1.05,1.57,1.78,2.68,2.17,1.08.38,2.3.46,3.6.24.22-.03.43-.07.65-.12.23-.05.47-.12.71-.22.21-.09.41-.16.58-.21.18-.06.41-.15.67-.25.26-.11.45-.19.59-.25.14-.06.36-.17.66-.32l.58-.29c.09-.04.29-.15.61-.32l.22-.12c.17-.09.28-.15.33-.17,3.84-1.98,6.69-3.38,8.5-4.18.08-.04.15-.08.2-.13.67-.45.78-1.13.31-1.88-.5-.77-1.2-.98-1.98-.59Zm-103.75,1.43h-.01c-.15.19-.49.58-1.04,1.18-.54.6-1.01,1.1-1.39,1.48-.37.37-.76.7-1.14.97-.15.1-.28.18-.37.23.02-.1.05-.23.1-.39.26-.82.6-1.58,1.02-2.26.27-.44.89-1.08,1.82-1.91.64-.57,1.18-.88,1.53-.88.01,0,.03,0,.04,0,.06.23.18.44.34.61-.39.41-.69.74-.9.98Zm81.59,0h-.01c-.15.19-.49.58-1.04,1.18-.54.6-1.01,1.1-1.39,1.48-.37.37-.76.7-1.14.97-.15.1-.28.18-.37.23.02-.1.05-.23.1-.39.26-.82.6-1.58,1.02-2.26.27-.44.89-1.08,1.82-1.91.64-.57,1.18-.88,1.53-.88.01,0,.03,0,.04,0,.06.23.18.44.34.61-.39.41-.69.74-.9.98Z"/><path class="cls-1" d="m363.82,299.43v-.02c-.17-.42-.41-.71-.73-.85-.31-.14-.66-.12-1.07.04-4.35,1.84-8.36,4.15-11.95,6.86.38-1.91.69-3.79.94-5.58.11-.77-.2-1.37-.87-1.7-.7-.34-1.37-.15-1.88.57-1.26,1.94-2.26,3.33-2.95,4.14-2.71,3.2-3.67,3.2-3.93,3.07-.09-.06-.17-.14-.24-.25-.07-.11-.12-.26-.14-.45-.03-.23-.04-.46-.04-.69s.03-.47.08-.77c.06-.33.1-.58.13-.76.03-.17.07-.4.13-.67.07-.34.09-.47.1-.54.26-1.25.77-2.86,1.48-4.79.25-.57.15-1.1-.28-1.49-.39-.35-.88-.48-1.41-.39-.56.1-.96.45-1.16,1l-.13.38c-.27.66-.47,1.19-.61,1.58-.06.19-.14.42-.23.7-1.3.57-3.1,1.44-5.35,2.61-2.31,1.19-3.96,2.02-4.91,2.47-1.76.85-3.12,1.21-4.05,1.07-.82-.09-1.41-.41-1.81-.97-.77-1.08-.84-3.07-.19-5.94.08-.47.02-1.13-.76-1.64-.64-.42-1.29-.34-1.76.21l-.14.14c-.48-.5-1.1-.79-1.84-.86-.86-.08-1.71.04-2.5.36-.78.31-1.48.72-2.1,1.21-.47.37-.92.81-1.34,1.33-.1.02-.2.04-.3.08-3.66,1.59-7.56,2.01-11.61,1.27-.3-1.09-.86-1.99-1.64-2.67-.88-.76-1.97-1.03-3.21-.81-.09.02-.19.04-.28.06.04-.11.08-.23.13-.36,3.8-3.51,5.88-4.34,7.81-7.31,1.36-2.09,2.19-4,2.46-5.67.42-2.32.05-3.81-1.1-4.44-1.63-.9-3.29-.47-4.94,1.28-2.02,2.13-4.22,6.7-6.55,13.59l-7.4,4.27c-.72.41-.96,1.33-.55,2.05.41.72,1.33.96,2.05.55l4.25-2.45c-.05.12-.09.25-.13.36-.22.61-.52,1.49-.89,2.64-.39,1.19-.59,2.13-.62,2.89-.03.74,0,1.5.09,2.27.1.88.49,1.54,1.14,1.96.62.4,1.45.58,2.45.51,1.32-.06,2.64-.54,3.93-1.4,1.29-.87,2.23-1.93,2.8-3.16.14-.33.26-.69.35-1.08,3.27.49,6.53.29,9.71-.58-.21.7-.31,1.37-.29,2,.04,1.26.55,2.13,1.53,2.58.97.45,1.97.33,2.98-.34,1.4-.94,3.03-2.47,4.88-4.54.11,1.13.43,2.15.96,3.04.67,1.05,1.57,1.78,2.68,2.17,1.08.38,2.3.46,3.59.24.22-.03.44-.07.65-.12.23-.05.47-.12.71-.22.21-.09.41-.16.58-.21.19-.06.41-.15.67-.26.26-.11.45-.19.59-.25.14-.06.36-.17.66-.32l.58-.29c.09-.04.29-.15.61-.32l.22-.12c.17-.09.28-.15.33-.17,2.35-1.21,4.34-2.21,5.93-2.98-.06.44-.11.92-.14,1.44-.05.78,0,1.45.12,1.99.13.56.38,1.08.74,1.57.37.5.86.89,1.47,1.16,2,.79,4.22-.19,6.64-2.9-.21.93-.44,1.86-.67,2.79-.59.54-1.15,1.09-1.66,1.63-1.19,1.22-2.23,2.33-3.11,3.31-.88.98-1.84,2.19-2.87,3.59-1.04,1.41-1.88,2.86-2.49,4.31-.62,1.46-.99,2.91-1.08,4.3-.06.62-.05,1.29.05,1.97.09.68.26,1.36.49,2.02.25.71.66,1.29,1.23,1.71.48.35,1.02.53,1.64.53.15,0,.3-.01.45-.03.4-.07.79-.2,1.17-.4.36-.19.68-.39.94-.6.27-.22.54-.53.83-.95.27-.4.49-.72.64-.98.16-.27.35-.66.58-1.15.22-.49.38-.85.47-1.05.09-.21.23-.59.43-1.13.18-.49.28-.77.33-.89,1.97-5.28,3.55-10.21,4.7-14.65,4.16-3.62,8.86-6.55,13.89-8.69l.18-.04.13-.06c.68-.46.91-1.14.65-1.94Zm-65.41-10.97c.46-1.1.86-1.99,1.18-2.63.38-.7.81-1.41,1.27-2.1,1.53-2.21,2.02-2.2,2.03-2.2,0,0,.04.06.06.25.01.26-.02.55-.08.88-.07.33-.18.7-.32,1.08-.15.39-.27.7-.37.93-.11.25-.2.47-.24.61-.64,1.31-1.58,2.77-2.8,4.34-.66.84-1.38,1.71-2.16,2.58.52-1.41,1-2.66,1.44-3.73Zm-.88,14.36h0c-.26.89-1.01,1.69-2.22,2.4-1.8,1.04-2.41.86-2.56.76-.13-.11-.21-.28-.24-.52-.04-.29,0-.68.1-1.15.11-.5.24-.93.36-1.29.13-.37.3-.83.51-1.37.07-.2.14-.36.19-.5.48.25,1.2.56,2.18.94.55.2,1.12.39,1.71.57-.01.06-.03.11-.05.16Zm19.49-2.59h-.01c-.15.19-.49.58-1.03,1.18-.54.6-1.01,1.1-1.39,1.48-.37.37-.76.7-1.14.97-.15.1-.28.18-.37.23.02-.1.05-.23.1-.39.26-.82.6-1.59,1.02-2.26.27-.44.89-1.08,1.82-1.91.64-.57,1.18-.88,1.53-.88.01,0,.03,0,.04,0,.06.23.18.44.34.61-.39.41-.69.74-.9.98Zm26.49,17.72c-.12.33-.32.93-.6,1.79-.28.86-.5,1.52-.67,2-.16.47-.37,1.06-.62,1.75-.25.69-.51,1.33-.77,1.91-.26.58-.54,1.13-.83,1.66l-.05.09v.04s-.05.09-.08.16l-.49.89c-.08.14-.16.26-.22.39h-.1c-.24.07-.43.06-.57-.03-.15-.09-.26-.26-.34-.51-.09-.31-.15-.56-.16-.75-.01-.22-.02-.48-.02-.8,0-1.46.52-3.13,1.55-4.96,1.37-2.45,3.07-4.81,5.06-7.04-.35,1.13-.71,2.27-1.08,3.41Z"/></svg>